<svg width="248" height="95" version="1.1" xmlns="http://www.w3.org/2000/svg" desc="Created with imagetracer.js version 1.2.6" ><path fill="rgb(0,0,0)" stroke="rgb(0,0,0)" stroke-width="0" opacity="0" d="M 0 0 L 248 0 L 248 95 L 0.5 95 L 0 94.5 L 0 14.5 Q 2 13.5 0 12.5 L 0 0 Z M 70 2 L 70 3 L 71 3 L 70 2 Z M 74 2 L 74 3 L 75 3 L 74 2 Z M 79 2 L 79 3 L 82 3 L 79 2 Z M 84 2 L 84 3 L 86 3 L 84 2 Z M 2 15 L 1 17 L 2 17 L 2 15 Z M 208 15 L 201 27 Q 202 29 200 28 L 199 28 L 201 26 Q 201 20 197 18 L 194 20 L 198 29 L 193 32 L 195 34 Q 198 35 199 33 Q 201 32 200 35 L 195 38 Q 192 37 193 41 L 196 42 L 198 41 Q 201 40 199 44 L 190 47 L 191 45 L 187 41 L 181 44 L 179 44 L 180 42 L 183 39 L 188 38 L 189 37 L 188 31 Q 192 31 193 28 Q 194 25 192 26 Q 189 25 191 24 Q 192 19 189 19 L 185 19 L 177 23 L 174 23 Q 173 26 176 27 L 178 26 Q 180 25 179 29 L 170 33 L 172 36 Q 175 37 176 35 Q 178 34 177 38 L 170 42 L 173 44 L 174 43 L 175 44 L 169 56 Q 167 60 171 59 L 175 53 Q 174 50 177 51 L 177 58 L 179 59 Q 182 60 181 57 L 189 55 L 188 50 L 192 51 L 199 49 L 199 73 L 202 75 L 203 74 Q 202 70 204 70 L 203 67 L 205 48 L 207 46 Q 210 47 211 45 L 217 45 L 218 44 L 216 40 L 212 40 L 207 42 L 205 42 L 205 38 L 210 36 L 210 33 L 205 33 L 205 32 L 210 29 Q 212 30 211 27 Q 210 24 207 25 L 211 17 Q 211 15 208 15 Z M 146 17 L 144 19 L 146 23 L 149 25 L 142 27 L 137 30 Q 132 29 134 33 L 138 34 L 136 47 L 130 62 L 129 63 L 132 65 L 134 63 L 138 55 L 141 45 L 141 41 L 145 40 L 145 45 L 147 48 Q 144 48 143 51 Q 140 50 141 53 L 146 55 L 147 58 L 142 62 Q 139 61 140 64 L 143 65 L 148 63 L 152 59 L 154 61 L 163 65 L 165 64 Q 170 66 168 61 L 163 60 L 155 56 L 159 47 Q 159 43 155 44 L 154 44 L 157 41 L 156 38 Q 157 35 161 35 L 162 32 L 160 31 L 158 32 L 155 27 L 161 26 Q 162 23 160 22 L 157 22 L 153 24 L 151 24 L 152 21 L 150 18 L 146 17 Z M 119 21 L 106 27 L 102 27 L 101 50 L 99 49 L 96 52 L 95 52 L 97 38 L 95 37 L 84 43 L 86 46 L 89 46 L 92 44 L 90 61 Q 91 63 94 62 Q 98 59 99 52 L 100 52 L 100 57 L 98 63 Q 99 65 102 64 L 104 58 L 104 54 L 105 53 L 105 45 L 108 46 L 119 41 L 120 42 L 120 61 L 115 60 L 115 62 L 121 67 Q 124 68 125 66 L 125 40 L 124 39 L 124 25 L 121 21 L 119 21 Z M 27 22 L 27 36 L 23 38 L 21 39 L 22 36 L 22 33 L 20 29 Q 17 28 16 31 L 17 33 L 11 49 Q 11 52 14 53 Q 17 51 18 46 L 20 44 L 25 43 Q 26 41 27 44 L 27 49 Q 25 50 26 53 L 17 56 L 8 61 Q 4 60 5 64 L 9 66 L 26 58 L 26 64 Q 28 65 26 66 L 27 78 Q 28 80 31 79 L 32 77 L 32 57 L 36 54 L 46 52 L 47 51 Q 48 47 46 47 L 40 47 L 34 50 L 32 50 L 32 41 L 34 39 L 38 38 L 40 36 Q 41 33 39 32 L 32 33 L 32 26 L 31 24 Q 30 21 27 22 Z M 68 24 L 57 29 Q 52 32 57 34 L 59 34 L 66 30 L 68 31 L 64 41 Q 63 44 65 45 L 60 47 L 62 38 Q 61 35 58 35 L 58 39 L 54 50 Q 53 53 56 54 L 58 54 L 60 52 L 69 48 L 74 47 L 74 53 L 70 65 L 68 64 L 63 65 L 71 71 Q 75 68 77 62 L 79 56 L 80 47 L 77 43 L 69 43 L 72 32 L 74 29 L 73 27 Q 72 23 68 24 Z M 92 26 L 90 28 L 95 33 Q 98 34 98 32 L 97 28 L 92 26 Z M 116 44 Q 112 47 107 47 L 107 56 L 110 58 L 113 56 L 117 56 L 118 55 Q 117 50 119 49 L 118 45 L 116 44 Z M 67 53 L 54 59 L 49 60 L 47 62 L 49 64 L 53 64 L 62 59 L 70 57 L 71 56 Q 71 52 67 53 Z M 71 83 L 71 84 L 74 84 L 71 83 Z M 93 84 L 93 85 L 96 85 L 93 84 Z " /><path fill="rgb(0,0,0)" stroke="rgb(0,0,0)" stroke-width="0" opacity="0" d="M 183.5 24 L 186 24.5 L 185 27 L 182 25.5 L 183.5 24 Z " /><path fill="rgb(0,0,0)" stroke="rgb(0,0,0)" stroke-width="0" opacity="0" d="M 117.5 26 L 119 26.5 L 119 35.5 L 120 39 L 115.5 38 L 114 38.5 L 116.5 35 Q 119.5 35.7 118 32 L 114 32 L 114 30.5 L 112 28.5 L 112.5 28 L 117.5 26 Z " /><path fill="rgb(0,0,0)" stroke="rgb(0,0,0)" stroke-width="0" opacity="0" d="M 151.5 28 Q 153.8 27.3 153 29.5 Q 151 30.5 153 31.5 L 150.5 34 L 149 34 Q 150.5 30.2 147.5 31 L 147.5 30 L 151.5 28 Z " /><path fill="rgb(0,0,0)" stroke="rgb(0,0,0)" stroke-width="0" opacity="0" d="M 109.5 29 L 110 33.5 L 107 35 Q 105.5 38.7 108.5 38 L 110 41 L 106 42 L 106 31.5 L 107.5 30 L 109.5 29 Z " /><path fill="rgb(0,0,0)" stroke="rgb(0,0,0)" stroke-width="0" opacity="0" d="M 144.5 31 L 146 31.5 Q 144.3 32.2 145 35.5 L 143.5 37 L 142 37 L 142 32 L 144.5 31 Z " /><path fill="rgb(0,0,0)" stroke="rgb(0,0,0)" stroke-width="0" opacity="0" d="M 183.5 32 L 184 33.5 L 182 34.5 L 183.5 32 Z " /><path fill="rgb(0,0,0)" stroke="rgb(0,0,0)" stroke-width="0" opacity="0" d="M 150.5 38 L 152 38.5 L 149.5 40 L 150.5 38 Z " /><path fill="rgb(0,0,0)" stroke="rgb(0,0,0)" stroke-width="0" opacity="0" d="M 151.5 44 L 152 46 L 149 45.5 L 151.5 44 Z " /><path fill="rgb(0,0,0)" stroke="rgb(0,0,0)" stroke-width="0" opacity="0" d="M 184.5 46 L 185 48.5 L 181.5 53 L 180 49.5 L 184.5 46 Z " /><path fill="rgb(0,0,0)" stroke="rgb(0,0,0)" stroke-width="0" opacity="0" d="M 112.5 49 Q 114.8 48.3 114 50.5 Q 112 55 110 51.5 L 112.5 49 Z " /><path fill="rgb(0,0,0)" stroke="rgb(0,0,0)" stroke-width="0" opacity="0" d="M 152.5 49 L 153 50.5 L 150.5 54 L 148 53 Q 146.9 50.3 149.5 51 L 152.5 49 Z " /><path fill="rgb(46,42,37)" stroke="rgb(46,42,37)" stroke-width="0" opacity="0.984313725490196" d="M 69.5 2 L 71 2.5 L 69.5 3 L 69.5 2 Z " /><path fill="rgb(46,42,37)" stroke="rgb(46,42,37)" stroke-width="0" opacity="0.984313725490196" d="M 73.5 2 L 75 2.5 L 73.5 3 L 73.5 2 Z " /><path fill="rgb(46,42,37)" stroke="rgb(46,42,37)" stroke-width="0" opacity="0.984313725490196" d="M 78.5 2 L 82 2.5 L 78.5 3 L 78.5 2 Z " /><path fill="rgb(46,42,37)" stroke="rgb(46,42,37)" stroke-width="0" opacity="0.984313725490196" d="M 83.5 2 L 86 2.5 L 83.5 3 L 83.5 2 Z " /><path fill="rgb(46,42,37)" stroke="rgb(46,42,37)" stroke-width="0" opacity="0.984313725490196" d="M 0.5 13 L 0.5 14 L 0.5 13 Z " /><path fill="rgb(46,42,37)" stroke="rgb(46,42,37)" stroke-width="0" opacity="0.984313725490196" d="M 1.5 15 L 2 16.5 L 1 16.5 L 1.5 15 Z " /><path fill="rgb(46,42,37)" stroke="rgb(46,42,37)" stroke-width="0" opacity="0.984313725490196" d="M 207.5 15 Q 210.5 14.5 211 16.5 L 207 25 Q 210 24.3 211 26.5 Q 212.1 29.8 209.5 29 L 205 31.5 L 205 33 L 210 33 L 210 35.5 L 205 38 L 205 42 L 206.5 42 L 211.5 40 L 215.5 40 L 218 43.5 L 216.5 45 L 210.5 45 Q 209.8 46.8 206.5 46 L 205 47.5 L 203 66.5 L 204 69.5 Q 202.3 70.3 203 73.5 L 201.5 75 L 199 72.5 L 199 49 L 191.5 51 L 188 50 L 189 55 L 181 57 Q 182.3 60 178.5 59 L 177 57.5 L 177 51 Q 174.3 49.9 175 52.5 L 170.5 59 Q 167.5 59.9 169 55.5 L 175 43.5 L 173.5 43 L 172.5 44 L 170 41.5 L 177 38 Q 178.5 34.2 175.5 35 Q 174.8 36.8 171.5 36 L 170 33 L 179 28.5 Q 180.1 25.2 177.5 26 L 175.5 27 Q 173.3 26 174 23 L 176.5 23 L 184.5 19 L 188.5 19 Q 191.5 19.5 191 23.5 Q 188.8 24.8 191.5 26 Q 193.8 25.3 193 27.5 Q 191.6 31.5 188 31 L 189 36.5 L 187.5 38 L 182.5 39 L 180 41.5 L 179 43.5 L 180.5 44 L 186.5 41 L 191 44.5 L 190 47 L 199 44 Q 200.5 40.3 197.5 41 L 195.5 42 L 193 41 Q 191.5 37.2 194.5 38 L 200 34.5 Q 200.8 32.3 198.5 33 Q 197.8 34.8 194.5 34 L 193 31.5 L 198 29 L 194 19.5 L 196.5 18 Q 200.6 20.4 201.5 26 L 207.5 15 Z M 184 24 L 182 26 L 185 27 L 186 25 L 184 24 Z M 201 26 L 199 28 L 201 28 L 201 26 Z M 184 32 L 182 35 L 184 34 L 184 32 Z M 185 46 L 180 50 L 182 53 L 185 49 L 185 46 Z " /><path fill="rgb(46,42,37)" stroke="rgb(46,42,37)" stroke-width="0" opacity="0.984313725490196" d="M 145.5 17 L 149.5 18 L 152 20.5 L 151 23.5 L 152.5 24 L 156.5 22 L 159.5 22 Q 161.8 23 161 26 L 155 27 L 157.5 32 L 159.5 31 L 162 32 L 160.5 35 Q 156.5 34.5 156 37.5 L 157 40.5 L 154 43.5 L 154.5 44 Q 158.5 43.5 159 46.5 L 155 55.5 L 162.5 60 L 168 61 Q 169.8 65.5 164.5 64 L 162.5 65 L 153.5 61 L 151.5 59 L 147.5 63 L 142.5 65 L 140 64 Q 138.9 61.3 141.5 62 L 147 57.5 L 145.5 55 L 141 53 Q 139.9 50.3 142.5 51 Q 143.8 47.5 147 48 L 145 44.5 L 144.5 40 L 141 41 L 141 44.5 L 138 54.5 L 134 62.5 L 131.5 65 L 129 62.5 L 130 61.5 L 136 46.5 L 138 34 L 134 33 Q 132.3 28.9 136.5 30 L 141.5 27 L 149 24.5 L 146 23 L 144 18.5 L 145.5 17 Z M 152 28 L 148 30 L 148 31 Q 150 30 149 34 L 151 34 L 153 32 Q 151 31 153 30 Q 154 27 152 28 Z M 145 31 L 142 32 L 142 37 L 144 37 L 145 36 Q 144 32 146 32 L 145 31 Z M 151 38 L 150 40 L 152 39 L 151 38 Z M 152 44 L 149 46 L 152 46 L 152 44 Z M 153 49 L 150 51 Q 147 50 148 53 L 151 54 L 153 51 L 153 49 Z " /><path fill="rgb(46,42,37)" stroke="rgb(46,42,37)" stroke-width="0" opacity="0.984313725490196" d="M 118.5 21 L 120.5 21 L 124 24.5 L 124 38.5 L 125 39.5 L 125 65.5 Q 124.3 67.8 120.5 67 L 115 61.5 L 115 60 L 120 61 L 120 41.5 L 118.5 41 L 107.5 46 L 105 45 L 105 52.5 L 104 53.5 L 104 57.5 L 102 64 Q 99 64.8 98 62.5 L 100 56.5 L 100 51.5 L 99 51.5 Q 98.1 58.6 93.5 62 Q 90.5 62.5 90 60.5 L 92 44 L 88.5 46 L 85.5 46 L 84 43 L 94.5 37 L 97 38 L 95 51.5 L 95.5 52 L 98.5 49 L 100.5 50 L 102 27 L 105.5 27 L 118.5 21 Z M 118 26 L 113 28 L 112 29 L 114 31 L 114 32 L 118 32 Q 119 36 117 35 L 114 39 L 116 38 L 120 39 L 119 36 L 119 27 L 118 26 Z M 110 29 L 108 30 L 106 32 L 106 42 L 110 41 L 109 38 Q 105 39 107 35 L 110 34 L 110 29 Z " /><path fill="rgb(46,42,37)" stroke="rgb(46,42,37)" stroke-width="0" opacity="0.984313725490196" d="M 27 22 Q 30 21.3 31 23.5 L 32 25.5 L 32 33 L 38.5 32 Q 40.5 32.5 40 35.5 L 37.5 38 L 33.5 39 L 32 40.5 L 32 49.5 L 33.5 50 L 39.5 47 L 45.5 47 Q 47.5 47.5 47 50.5 L 45.5 52 L 35.5 54 L 32 56.5 L 32 76.5 L 31 79 Q 28 79.8 27 77.5 L 26 65.5 Q 28 64.5 26 63.5 L 25.5 58 L 8.5 66 L 5 63.5 Q 3.8 59.8 7.5 61 L 16.5 56 L 26 53 Q 25 49.6 27 48.5 L 27 43.5 Q 25.8 40.8 24.5 43 L 19.5 44 L 18 45.5 Q 17 50.5 13.5 53 Q 10.5 52.5 11 48.5 L 17 32.5 L 16 30.5 Q 17 28.3 20 29 L 22 32.5 L 22 35.5 L 21 38.5 L 22.5 38 L 27 35.5 L 27 22 Z " /><path fill="rgb(46,42,37)" stroke="rgb(46,42,37)" stroke-width="0" opacity="0.984313725490196" d="M 67.5 24 Q 72.3 23.3 73 26.5 L 74 28.5 L 72 31.5 L 69 43 L 76.5 43 L 80 46.5 L 79 55.5 L 77 61.5 Q 75.1 67.6 70.5 71 L 63 64.5 L 67.5 64 L 70 65 L 74 52.5 L 74 47 L 68.5 48 L 59.5 52 L 57.5 54 L 55.5 54 Q 53.3 53.3 54 49.5 L 58 38.5 L 58 35 Q 60.9 34.5 62 37.5 L 60 47 L 65 44.5 Q 63.3 43.8 64 40.5 L 68 30.5 L 65.5 30 L 58.5 34 L 56.5 34 Q 51.5 31.5 56.5 29 L 67.5 24 Z " /><path fill="rgb(46,42,37)" stroke="rgb(46,42,37)" stroke-width="0" opacity="0.984313725490196" d="M 91.5 26 L 97 28 L 98 31.5 Q 97.5 33.5 94.5 33 L 90 27.5 L 91.5 26 Z " /><path fill="rgb(46,42,37)" stroke="rgb(46,42,37)" stroke-width="0" opacity="0.984313725490196" d="M 115.5 44 L 118 45 L 119 48.5 Q 116.7 49.7 118 54.5 L 116.5 56 L 112.5 56 L 109.5 58 L 107 55.5 L 107 47 Q 112.4 47 115.5 44 Z M 113 49 L 110 52 Q 112 55 114 51 Q 115 48 113 49 Z " /><path fill="rgb(46,42,37)" stroke="rgb(46,42,37)" stroke-width="0" opacity="0.984313725490196" d="M 66.5 53 Q 70.5 52.5 71 55.5 L 69.5 57 L 61.5 59 L 52.5 64 L 48.5 64 L 47 61.5 L 48.5 60 L 53.5 59 L 66.5 53 Z " /><path fill="rgb(46,42,37)" stroke="rgb(46,42,37)" stroke-width="0" opacity="0.984313725490196" d="M 70.5 83 L 74 83.5 L 70.5 84 L 70.5 83 Z " /><path fill="rgb(46,42,37)" stroke="rgb(46,42,37)" stroke-width="0" opacity="0.984313725490196" d="M 92.5 84 L 96 84.5 L 92.5 85 L 92.5 84 Z " /></svg>