<svg width="16" height="16" viewBox="0 0 16 16" fill="none" xmlns="http://www.w3.org/2000/svg">
  <path d="M7.725 15.109a1.535 1.535 0 0 1-2.151.25l-.128-.11-.056-.055a2.8 2.8 0 0 1-.724-2.721l.477-1.73c.01-.033.018-.065.026-.094H4.143c-.52 0-.873.002-1.152-.046A3.145 3.145 0 0 1 .43 6.919c.052-.279.177-.609.358-1.097l.946-2.549c.195-.524.356-.96.521-1.308.173-.358.37-.669.658-.929.171-.153.36-.285.563-.392.345-.182.706-.258 1.101-.294.383-.034.848-.033 1.408-.033h5.107c.784 0 1.428-.001 1.944.055.53.057 1.006.18 1.425.485.24.174.45.385.625.625.304.418.428.895.486 1.424.056.516.055 1.161.055 1.946v1.65c0 .66.006 1.135-.111 1.541a2.79 2.79 0 0 1-1.937 1.938c-.406.117-.881.11-1.54.11-.202 0-.227.002-.244.005a.65.65 0 0 0-.194.093c-.013.011-.03.03-.155.189l-3.7 4.703-.022.027Zm6.514-10.257c0-.816-.001-1.372-.047-1.797-.045-.41-.125-.615-.228-.757a1.8 1.8 0 0 0-.318-.32c-.143-.103-.347-.183-.759-.227-.396-.043-.908-.046-1.639-.046.403.554.644 1.235.644 1.973v3.735h-1.388V3.678a1.974 1.974 0 0 0-1.974-1.974H5.985c-.584 0-.978 0-1.285.028-.294.026-.453.074-.576.139a1.8 1.8 0 0 0-.287.197c-.103.092-.203.225-.33.491-.132.278-.27.646-.473 1.194l-.946 2.553c-.204.55-.272.738-.296.87a1.79 1.79 0 0 0 1.433 2.06c.132.022.332.026.918.026h.927c.187 0 .389-.002.557.018.177.02.428.076.645.272.102.092.186.203.248.326.132.261.118.517.091.693-.026.166-.081.36-.13.54l-.467 1.69-.009.034a1.43 1.43 0 0 0 .366 1.379l.038.037.057.035a.13.13 0 0 0 .179-.05l.011-.012 3.701-4.702c.097-.124.192-.248.306-.353.253-.233.569-.386.909-.441.153-.025.309-.023.466-.023.754 0 .986-.007 1.157-.056a1.4 1.4 0 0 0 .988-.987c.05-.172.055-.404.055-1.159V4.852Z" fill="#000"/>
</svg>
